<?xml version="1.0" encoding="UTF-8"?><svg id="Layer_1" xmlns="http://www.w3.org/2000/svg" xmlns:xlink="http://www.w3.org/1999/xlink" viewBox="0 0 1500 1500"><defs><style>.cls-1{fill:url(#linear-gradient-2);}.cls-2{fill:url(#linear-gradient);}</style><linearGradient id="linear-gradient" x1="279.01" y1="652.48" x2="1163.08" y2="652.48" gradientUnits="userSpaceOnUse"><stop offset="0" stop-color="#96a09e"/><stop offset="1" stop-color="#dadad8"/></linearGradient><linearGradient id="linear-gradient-2" x1="307.76" y1="827.99" x2="1185.81" y2="827.99" xlink:href="#linear-gradient"/></defs><path class="cls-2" d="M972.9,992.4c-198.4,111.95-481.66-6.39-407.52-261.38,0,0,1.55,30.25,8.03,63.78.21,1.07.48,2.09.87,3.02,37.6,210.91,369.3,226.2,455-17.53,143.54-408.27-471.75-610.4-717-257.55-1.4,2.03-2.75,4.21-4,6.45-.03.03-.03.06-.06.09-9.88,14-19.92,29.68-29.2,46.61,88.87-302.2,485.7-395.31,727.36-211.3,217.81,165.85,210.31,490.23-33.47,627.81Z"/><path class="cls-1" d="M947.15,736.98l-11.23-45.42c-4.92-19.91-12.22-39.2-22.19-57.12-101.37-182.16-368.82-147.35-456.91,44.74-181,394.72,426.15,650.93,686.18,274.49,15.54-22.49,32.36-54.6,42.81-67.5-42.45,142.8-165.06,269.97-312.41,305.06-272.92,64.99-586.83-108.99-564.51-415.34,27.76-381.04,623.84-466.97,638.26-38.91Z"/></svg>