<?xml version="1.0" encoding="UTF-8"?><svg id="Layer_1" xmlns="http://www.w3.org/2000/svg" viewBox="0 0 1500 1500"><path d="M324.57,714.93c-4.26-9.43-5.93-10.8-11.1-11.86-1.22-.3-2.59-.46-3.5-.46-1.67-.3-2.43-.91-2.43-1.67,0-1.07,1.22-1.37,3.19-1.37,8.21,0,17.04.46,23.12.46,5.32,0,13.54-.46,25.4-.46,2.28,0,3.5.61,3.5,1.52s-.91,1.52-2.28,1.52c-1.83.15-2.74.15-4.11.46-3.95.61-4.56,2.28-4.56,3.8,0,1.98.91,5.02,3.5,11.56,7.15,18.56,16.73,41.22,23.58,59.01,6.24-13.99,22.05-51.26,27.07-65.55.76-1.67,1.22-3.65,1.22-5.02,0-1.98-.91-3.04-3.65-3.5-1.83-.46-4.41-.61-6.08-.76-1.98-.15-2.74-.61-2.74-1.52s.76-1.52,3.35-1.52c10.04,0,17.49.46,19.77.46s12.17-.46,16.88-.46c2.28,0,3.35.46,3.35,1.52s-.76,1.52-2.74,1.52c-1.83.15-4.26.15-6.69,1.37-3.19,1.52-5.32,4.72-9.58,13.69-6.08,13.08-11.56,25.4-20.23,44.72-9.73,21.6-16.27,35.44-20.23,43.35-4.41,8.97-5.93,10.95-7.91,10.95-2.13,0-3.35-2.13-6.24-9.13l-39.85-92.63ZM433.47,757.52c0-30.42,20.38-60.08,65.1-60.08,38.63,0,62.82,25.86,62.82,56.73,0,35.44-24.03,62.51-63.88,62.51-44.87,0-64.03-32.24-64.03-59.17ZM530.97,760.86c0-25.25-10.49-53.99-37.42-53.99-13.99,0-29.66,7.76-29.66,43.8,0,28.75,12.02,56.28,38.18,56.28,9.43,0,28.9-4.11,28.9-46.09ZM587.25,743.67c0-23.58-.3-26.62-.46-31.49-.3-6.23-2.13-8.21-5.78-8.97-2.28-.46-4.72-.46-6.08-.61-1.83-.15-2.74-.76-2.74-1.67s1.06-1.37,3.35-1.37c6.54,0,21.14.46,23.27.46,2.89,0,17.49-.46,24.49-.46,14.3,0,24.34,1.37,31.03,5.17,7.3,3.95,13.84,11.71,13.84,23.27,0,12.78-7.3,22.51-20.38,30.57,9.28,13.39,20.38,29.66,29.66,40.31,8.06,8.97,11.71,11.56,15.97,12.17,1.67.3,2.59.3,3.8.46,1.67,0,2.59.61,2.59,1.52,0,1.37-1.52,1.52-3.04,1.52h-13.69c-15.67,0-22.36-1.52-27.68-5.02-4.87-2.89-9.73-9.43-15.67-19.01-7-11.56-10.49-17.8-13.23-21.9-.3-.46-1.06-.91-1.83-.91h-10.04c-.76,0-1.22.3-1.22,1.22v7.76c0,12.02,0,19.16.76,25.55.3,3.96,1.37,7.3,5.93,8.37,2.13.61,3.8.61,6.84.91,2.43.15,2.74.76,2.74,1.67s-1.06,1.37-3.19,1.37c-10.19,0-26.77-.46-27.83-.46-1.83,0-16.58.46-21.75.46-2.28,0-3.04-.46-3.04-1.52s1.06-1.52,2.74-1.52c1.52-.15,3.5-.3,5.17-.61,3.04-.76,4.26-3.5,4.72-8.67.61-6.39.76-17.03.76-31.79v-26.77ZM613.41,753.86c0,1.22.46,1.83,1.37,2.28,2.89,1.52,7.45,1.98,11.71,1.98s7.15-.61,9.58-2.43c3.19-2.43,5.93-8.97,5.93-19.16,0-21.6-13.69-27.23-21.6-27.23-2.43,0-5.02.15-6.08.61-.61.3-.91.46-.91,1.67v42.28ZM748.94,770.44c0,11.86,0,26.01.76,32.4.3,3.96,1.37,7.15,5.93,7.91,1.98.3,3.8.46,6.54.76,2.43.15,3.04.61,3.04,1.67,0,.91-.76,1.37-3.5,1.37-10.34,0-25.1-.46-27.53-.46-2.59,0-17.34.46-22.36.46-2.43,0-3.5-.3-3.5-1.52,0-1.07,1.22-1.52,3.04-1.52,1.52-.15,3.19-.3,4.87-.61,3.35-.61,4.41-3.96,4.87-8.37.61-6.39.91-17.34.91-32.09v-59.62c-5.93,0-15.36-.15-22.97.3-8.52.46-11.86,2.43-13.84,7.76-.76,1.67-1.06,2.59-1.37,3.5-.3,1.22-.76,2.43-1.83,2.43-1.37,0-1.37-1.22-1.22-3.04.61-6.24,2.28-14.45,3.35-20.23.3-2.28.76-3.8,1.67-3.8,1.06,0,1.67.46,5.17,1.22,2.74.61,11.1,1.07,16.88,1.07h66.16c4.72,0,7.45-.3,9.58-.61,2.43-.46,3.65-.91,4.72-.91,1.37,0,1.52.91,1.52,4.72,0,2.13-.91,16.27-1.06,20.08-.15,2.13-.61,3.04-1.52,3.04-1.22,0-1.52-.91-1.67-2.74-.15-1.67-.15-2.28-.3-3.04-.61-4.72-2.89-8.37-11.86-8.97-5.02-.46-12.93-.76-24.49-.76v59.62ZM811.16,743.67c0-24.79-.15-27.83-.46-32.7-.3-4.41-1.67-7-5.48-7.91-1.37-.3-3.5-.3-5.02-.46-1.98-.15-2.74-.76-2.74-1.67s.91-1.37,3.35-1.37c8.67,0,15.97.46,22.66.46,3.19,0,40.46-.15,42.89-.15,3.04,0,6.69-.3,8.21-.61,1.06-.3,1.83-.61,2.43-.61.76,0,.91.61.91,1.37s-.3,2.28-.76,6.69c-.46,3.04-.76,8.37-1.22,16.27,0,1.22-.61,2.13-1.52,2.13-.76,0-1.37-.76-1.52-2.13,0-1.67-.15-3.19-.76-5.32-.76-3.5-2.74-5.48-10.04-6.08-5.02-.46-18.25-.76-22.81-.76-.91,0-1.22.46-1.22,1.52v33.46c0,1.06.15,1.82,1.22,1.82,4.26.15,16.58,0,22.05-.15,7.45-.3,9.43-.76,11.1-3.5.91-1.37,1.37-1.98,2.13-1.98.91,0,.91.91.91,1.83,0,1.52-.76,7-1.22,12.93-.15,3.5-.15,10.95-.15,12.63,0,1.98-.46,2.89-1.37,2.89-1.06,0-1.37-1.07-1.67-2.43-.15-1.22-.3-2.28-.46-3.5-.61-4.41-2.74-7-10.19-7.45-4.26-.3-16.73-.61-21.45-.61-.76,0-.91.76-.91,1.98v10.49c0,5.17-.15,14.15,0,19.92.15,10.65,2.28,13.08,19.16,13.08,3.95,0,9.89-.15,14.15-1.83,4.26-1.67,6.08-5.02,7.45-12.02.3-1.83.91-2.74,1.82-2.74,1.22,0,1.37,1.52,1.37,3.35,0,5.93-1.67,17.49-2.43,20.38-1.06,3.95-2.13,4.11-7.76,4.11-20.99,0-32.4-.91-48.37-.91-7.15,0-13.54.46-21.9.46-2.74,0-3.65-.46-3.65-1.52,0-.76.76-1.52,3.04-1.52,1.83-.15,3.35-.3,4.56-.61,4.26-.61,4.87-6.39,5.17-15.97.3-6.08.46-15.06.46-24.49v-26.77ZM935.58,759.04l-26.16-42.74c-4.56-7.76-7.3-11.86-14.6-13.08-2.13-.3-3.35-.46-4.41-.61-1.98-.15-2.28-.91-2.28-1.67,0-1.07,1.07-1.37,3.35-1.37,2.89,0,8.06.46,24.18.46,2.74,0,15.67-.46,23.73-.46,2.13,0,3.35.3,3.35,1.37s-.91,1.52-2.59,1.67c-1.22.15-2.74.3-3.8.61-1.52.46-2.13,1.52-2.13,2.59,0,1.67,1.67,4.87,3.04,7.15,6.23,11.1,12.47,20.99,15.97,27.07,4.11-5.93,14.6-22.36,17.95-27.83,2.13-3.19,2.59-5.17,2.59-6.23,0-1.22-.76-2.28-3.5-2.74-1.52-.3-3.19-.46-5.17-.61-1.22,0-2.28-.61-2.28-1.52,0-.76.61-1.52,3.04-1.52,6.08,0,14.6.46,18.25.46,3.95,0,11.26-.46,18.1-.46,1.67,0,2.89.46,2.89,1.37,0,1.22-.91,1.67-2.89,1.67-1.67.15-2.89.3-3.95.61-4.41,1.06-6.84,3.04-13.69,12.47l-25.1,34.22c7.15,11.86,28.75,47.15,34.53,54.91,2.13,2.74,4.72,5.17,9.13,5.93,1.98.46,3.5.61,5.48.76,2.13,0,2.59.61,2.59,1.52,0,1.06-.91,1.52-3.04,1.52-21.9,0-36.2-.3-45.02-.76-2.43-.15-3.04-.76-3.04-1.52s.76-1.22,1.83-1.52c1.98-.61,2.28-1.98,1.37-3.65-5.02-9.73-16.58-29.05-21.14-37.11l-20.38,32.09c-1.52,2.43-2.43,4.41-2.43,6.08.15,1.52,1.52,2.59,3.8,2.89.91.15,2.59.3,3.95.46,1.67,0,2.89.61,2.89,1.67,0,1.22-1.06,1.52-3.04,1.52-3.35,0-16.12-.61-21.75-.61-5.02,0-15.21.46-17.34.46-1.98,0-2.89-.46-2.89-1.52,0-.76.61-1.52,2.59-1.52,1.22,0,3.5-.15,5.02-.61,3.96-.91,7.76-3.19,13.23-10.95l29.81-40.91Z"/><path d="M1107.79,841.49c-46.11,26.02-105.01,17.37-133.56-16.81h36.02c41.29,14.87,97.93-2.86,117.78-59.33,51.53-146.54-169.33-219.1-257.36-92.45-.51.73-.99,1.51-1.44,2.32-.01,0-.01.02-.02.03-3.55,5.03-7.15,10.65-10.48,16.73,31.89-108.47,174.33-141.89,261.08-75.84,78.18,59.53,75.49,175.96-12.02,225.35Z"/><path d="M943.27,690.94h-51.9c60.94-70.79,196.08-64.87,200.18,56.86l-4.03-16.3c-1.77-7.14-4.39-14.07-7.97-20.5-28.64-51.48-94.24-54.68-136.28-20.06Z"/><path d="M1193.22,803.36c-15.24,51.25-59.25,96.9-112.14,109.5-78.03,18.57-165.4-17.26-193.67-88.18h42.81c39.25,78.17,178.05,103.63,247.63,2.91,5.57-8.08,11.61-19.6,15.37-24.23Z"/></svg>